<?xml version="1.0" encoding="utf-8"?>
<!-- Generator: Adobe Illustrator 19.0.0, SVG Export Plug-In . SVG Version: 6.00 Build 0)  -->
<svg version="1.1" id="Layer_1" xmlns="http://www.w3.org/2000/svg" xmlns:xlink="http://www.w3.org/1999/xlink" x="0px" y="0px"
	 viewBox="-155 354.9 300 85.1" style="enable-background:new -155 354.9 300 85.1;" xml:space="preserve">
<style type="text/css">
	.st0{fill:#174D68;}
	.st1{fill:#6399CB;}
</style>
<g>
	<g id="XMLID_2_">
		<g id="XMLID_21_">
			<path id="XMLID_22_" class="st0" d="M-59,435c-0.3,0.1-0.6,0.1-0.9,0.1s-0.6,0-1,0c-1.5,0-2.9-0.2-4.2-0.7
				c-1.3-0.5-2.6-1.3-3.6-2.5c-1.1-1.2-1.9-3-2.5-5.2s-0.9-5.1-0.9-8.7v-31.9h-2.5v-4.6h2.6v-10.4h5.6v10.4h7.3v4.6h-7.1v33.2
				c0,2.2,0.1,4.1,0.4,5.5c0.3,1.5,0.7,2.6,1.2,3.4s1.1,1.4,1.9,1.8c0.7,0.3,1.6,0.5,2.5,0.5c0.7,0,1.4-0.1,2.1-0.2v4.5
				C-58.4,434.8-58.7,434.9-59,435z"/>
			<path id="XMLID_24_" class="st0" d="M-39.6,386.1c-2.6,0-4.4,0.9-5.6,2.7c-1.2,1.8-1.7,4-1.7,6.7v39.7h-6v-53.7h5.7v3.1
				c0.5-0.5,1.2-1.2,2.2-2s2.5-1.2,4.5-1.2h2.4v4.6L-39.6,386.1C-39.6,386-39.6,386.1-39.6,386.1z"/>
			<path id="XMLID_26_" class="st0" d="M-32.8,435.1v-53.6h6v53.6H-32.8z M-32.4,371.2v-9.8h5.2v9.8H-32.4z"/>
			<path id="XMLID_29_" class="st0" d="M11.4,435.1v-42.3c0-1.9-0.4-3.6-1.1-5c-0.8-1.5-1.8-2.2-3.1-2.2s-2.4,0.7-3.1,2.2
				c-0.8,1.5-1.1,3.2-1.1,5v42.3h-6v-42.3c0-1.9-0.4-3.6-1.1-5c-0.8-1.5-1.8-2.2-3.1-2.2s-2.4,0.7-3.1,2.2c-0.8,1.5-1.1,3.2-1.1,5
				v42.3h-6v-53.6h5.4v2.4c0,0,0.6-2.4,3.7-2.9c0.2,0,0.6-0.1,1.2-0.1c3,0,5.4,1.1,7.3,3.4c1.7-2.3,4.2-3.4,7.3-3.4
				c3.2,0,5.7,1.2,7.5,3.5c1.8,2.4,2.8,6,2.8,11V435L11.4,435.1L11.4,435.1z"/>
			<path id="XMLID_31_" class="st0" d="M38.2,435.1v-2.4l-2.7,2.7c-0.3,0.1-0.6,0.2-0.8,0.2c-0.3,0-0.5,0-0.7,0
				c-1.5,0-2.8-0.5-4.1-1.4s-2.4-2.2-3.3-3.8c-0.9-1.6-1.7-3.5-2.2-5.6c-0.6-2.1-0.8-4.4-0.8-6.7c0-4.4,0.6-8.2,1.7-11.3
				c1.1-3.1,2.4-5.7,3.9-7.8c1.5-2,3.1-3.6,4.7-4.6c1.6-1,2.9-1.7,3.9-1.9v-1.7c0-2-0.4-3.4-1.2-4.2s-1.8-1.1-3-1.1
				c-1,0-2,0.1-2.8,0.2c-0.8,0.2-1.7,0.4-2.6,0.7v-4.8c0.5-0.1,1.1-0.2,1.7-0.3c0.5-0.1,1.2-0.2,1.9-0.3c0.7-0.1,1.5-0.1,2.4-0.1
				c6.5,0,9.7,3.8,9.7,11.3V435L38.2,435.1L38.2,435.1z M37.7,397.8c-0.5,0.1-1.3,0.6-2.2,1.4s-1.8,2-2.7,3.6
				c-0.9,1.6-1.6,3.7-2.3,6.3c-0.6,2.6-1,5.6-1,9.1c0,4.6,0.5,7.9,1.5,9.9c1,1.9,2,2.9,3,2.9c0.8,0,1.6-0.4,2.3-1.3s1.1-1.6,1.3-2.3
				L37.7,397.8L37.7,397.8z"/>
			<path id="XMLID_34_" class="st0" d="M69.6,432.1c-1.8,2.4-4.3,3.5-7.5,3.5s-5.7-1.2-7.5-3.5c-1.8-2.4-2.8-6-2.8-11v-39.6h6v42.3
				c0,1.9,0.4,3.6,1.1,5c0.8,1.5,1.8,2.2,3.1,2.2s2.4-0.7,3.1-2.2c0.8-1.5,1.1-3.2,1.1-5v-42.3h6v39.6
				C72.4,426,71.5,429.7,69.6,432.1z"/>
			<path id="XMLID_36_" class="st0" d="M96.1,435.1l-6.9-22.5l-6.8,22.5h-5.1l8.4-27.9L78,381.5h5.8l6.2,20.6l6.1-20.6h5l-7.8,25.8
				l8.4,27.8L96.1,435.1L96.1,435.1z"/>
			<path id="XMLID_38_" class="st0" d="M107.9,435.1v-53.6h6v53.6H107.9z M108.3,371.2v-9.8h5.2v9.8H108.3z"/>
			<path id="XMLID_41_" class="st0" d="M124.1,435.1v-80.2h6v80.2L124.1,435.1L124.1,435.1z"/>
		</g>
		<g id="XMLID_12_">
			<path id="XMLID_43_" class="st1" d="M135.2,357.3h-1.5v-1.2h4.2v1.2h-1.5v7.7h-1.3L135.2,357.3L135.2,357.3z"/>
			<path id="XMLID_45_" class="st1" d="M139.3,356.1h1.2l1.6,4.7l0,0l1.6-4.7h1.2v8.9h-1.3v-5.4l0,0l-1.3,3.8h-0.6l-1.2-3.8l0,0v5.4
				h-1.3L139.3,356.1L139.3,356.1z"/>
		</g>
	</g>
	<path id="XMLID_4_" class="st0" d="M-110.3,387.5c5.1-0.8,9.8-1.2,14.2-1.4C-103.5,375-113,366-118.7,366
		c-8.2,0-24.2,18.7-30.8,35.4C-137.3,394.4-124.2,389.7-110.3,387.5z"/>
	<path id="XMLID_3_" class="st0" d="M-86.1,406.8c-0.7-2.6-1.8-5.4-3-8.2c-8.4,12.9-21.1,27.8-38.3,40.9c2.9,0.3,5.8,0.5,8.7,0.5
		c15.3-0.1,31.3-4.3,34.5-10c1-1.6,1.3-4.2,1-7.3C-83.4,418.9-84.5,412.5-86.1,406.8z"/>
	<path class="st1" d="M-92.4,391.7c-3.7-4.7-38.3,2.2-59.6,15.9c-2.3,9.3-4.9,17.8-0.7,22.9c4.3,5.2,9.9,5.9,19.3,7.6
		C-118.9,427.6-88.5,396.7-92.4,391.7z"/>
</g>
</svg>
