<?xml version="1.0" encoding="utf-8"?>
<!-- Generator: Adobe Illustrator 19.0.0, SVG Export Plug-In . SVG Version: 6.00 Build 0)  -->
<svg version="1.1" id="Layer_1" xmlns="http://www.w3.org/2000/svg" xmlns:xlink="http://www.w3.org/1999/xlink" x="0px" y="0px"
	 viewBox="-155 291.1 300 211.9" style="enable-background:new -155 291.1 300 211.9;" xml:space="preserve">
<style type="text/css">
	.st0{fill:#174D68;}
	.st1{fill:#6399CB;}
</style>
<g>
	<g id="XMLID_2_">
		<g id="XMLID_21_">
			<path id="XMLID_22_" class="st0" d="M-133.5,502c-0.4,0.1-0.8,0.1-1.2,0.1s-0.9,0-1.3,0c-2,0-3.9-0.3-5.8-0.9
				c-1.9-0.6-3.5-1.7-5-3.5c-1.4-1.7-2.6-4.1-3.5-7.1c-0.8-3-1.3-7-1.3-12v-43.5h-3.4V429h3.7v-14.2h7.6V429h10v6.2h-9.7v45.3
				c0,3,0.2,5.6,0.6,7.5c0.4,2,0.9,3.6,1.6,4.7c0.7,1.1,1.5,1.9,2.5,2.4s2.1,0.7,3.5,0.7c0.9,0,1.9-0.1,2.8-0.3v6.1
				C-132.7,501.8-133.1,502-133.5,502z"/>
			<path id="XMLID_24_" class="st0" d="M-107,435.3c-3.5,0-6,1.2-7.6,3.7c-1.6,2.4-2.3,5.5-2.3,9.1v54.1h-8.2v-73.1h7.8v4.3
				c0.6-0.7,1.7-1.6,3-2.7c1.3-1,3.5-1.6,6.2-1.6h3.3v6.2h-2.1l0,0H-107z"/>
			<path id="XMLID_26_" class="st0" d="M-97.8,502.2v-73.1h8.2v73.1H-97.8z M-97.2,415v-13.3h7.1V415H-97.2z"/>
			<path id="XMLID_29_" class="st0" d="M-37.3,502.2v-57.7c0-2.5-0.5-4.9-1.5-6.9s-2.4-3-4.3-3c-1.8,0-3.3,1-4.3,3s-1.5,4.4-1.5,6.9
				v57.7h-8.2v-57.7c0-2.5-0.5-4.9-1.5-6.9s-2.4-3-4.3-3c-1.8,0-3.3,1-4.3,3s-1.5,4.4-1.5,6.9v57.7h-8.2v-73.1h7.4v3.4
				c0,0,0.8-3.3,5.1-4c0.3-0.1,0.9-0.1,1.6-0.1c4.1,0,7.4,1.5,10,4.7c2.3-3.1,5.7-4.7,10-4.7c4.4,0,7.8,1.6,10.3,4.8
				c2.5,3.3,3.8,8.2,3.8,15v54H-37.3L-37.3,502.2z"/>
			<path id="XMLID_31_" class="st0" d="M-0.6,502.2v-3.4l-3.7,3.8c-0.4,0.2-0.7,0.3-1.1,0.3s-0.7,0-1,0c-2,0-3.9-0.6-5.6-1.9
				s-3.3-3-4.6-5.2c-1.3-2.1-2.3-4.7-3-7.6c-0.7-2.8-1.1-5.9-1.1-9.1c0-6.1,0.7-11.3,2.2-15.4c1.5-4.3,3.4-7.8,5.4-10.6
				c2-2.8,4.3-4.9,6.5-6.3c2.2-1.4,4-2.2,5.3-2.5v-2.2c0-2.7-0.6-4.7-1.7-5.7s-2.4-1.5-4.1-1.5c-1.4,0-2.6,0.1-3.8,0.3
				c-1.1,0.2-2.3,0.5-3.6,0.9v-6.7c0.7-0.1,1.4-0.2,2.3-0.4c0.7-0.2,1.6-0.3,2.5-0.4c0.9-0.1,2-0.1,3.3-0.1
				c8.8,0,13.2,5.2,13.2,15.4v58.4L-0.6,502.2L-0.6,502.2z M-1.3,451.5c-0.7,0.2-1.7,0.8-3,1.9c-1.2,1.1-2.4,2.7-3.7,5
				c-1.1,2.2-2.2,5.1-3,8.5c-0.9,3.5-1.3,7.6-1.3,12.5c0,6.3,0.7,10.9,2,13.5c1.3,2.6,2.7,4,4.2,4c1.1,0,2.1-0.6,3-1.7
				c0.9-1.2,1.5-2.2,1.8-3.1C-1.3,492-1.3,451.5-1.3,451.5z"/>
			<path id="XMLID_34_" class="st0" d="M42.2,498.2c-2.5,3.3-5.9,4.8-10.3,4.8s-7.8-1.6-10.3-4.8c-2.5-3.3-3.8-8.2-3.8-15v-54H26
				v57.7c0,2.5,0.5,4.9,1.5,6.9s2.4,3,4.3,3c1.9,0,3.3-1,4.3-3s1.5-4.4,1.5-6.9v-57.7h8.2v54C46,490,44.8,495,42.2,498.2z"/>
			<path id="XMLID_36_" class="st0" d="M78.3,502.2L69,471.5l-9.2,30.8h-6.9L64.4,464l-10.5-35h7.9l8.5,28l8.3-28h6.8l-10.7,35.2
				l11.5,38H78.3L78.3,502.2z"/>
			<path id="XMLID_38_" class="st0" d="M94.5,502.2v-73.1h8.2v73.1H94.5z M95.1,415v-13.3h7.1V415H95.1z"/>
			<path id="XMLID_41_" class="st0" d="M116.6,502.2V392.8h8.2v109.5H116.6z"/>
		</g>
		<g id="XMLID_12_">
			<path id="XMLID_43_" class="st1" d="M131.7,396h-2v-1.6h5.8v1.6h-2v10.4h-1.7V396H131.7z"/>
			<path id="XMLID_45_" class="st1" d="M137.3,394.5h1.6l2.2,6.4l0,0l2.2-6.4h1.7v12h-1.7V399l0,0l-1.7,5.2h-0.9L139,399l0,0v7.4
				h-1.7V394.5L137.3,394.5z"/>
		</g>
	</g>
	<path id="XMLID_4_" class="st0" d="M-0.2,321c7.1-1.1,13.6-1.7,19.7-1.9C9.2,303.7-4,291.2-11.9,291.2c-11.4,0-33.6,26-42.8,49.2
		C-37.7,330.5-19.5,324-0.2,321z"/>
	<path id="XMLID_3_" class="st0" d="M33.4,347.8c-1-3.6-2.5-7.5-4.2-11.4C17.6,354.3-0.1,375-24,393.2c4,0.4,8.1,0.7,12.1,0.7
		c21.3-0.1,43.5-6,47.9-13.9c1.4-2.2,1.8-5.8,1.4-10.1C37.2,364.7,35.7,355.8,33.4,347.8z"/>
	<path class="st1" d="M24.6,326.8c-5.1-6.6-53.3,3.1-82.9,22.1c-3.2,12.9-6.9,24.8-1,31.9c6,7.2,13.7,8.2,26.8,10.6
		C-12.1,376.8,30.1,333.8,24.6,326.8z"/>
</g>
</svg>
